<?xml version="1.0" encoding="utf-8"?>
<!-- Generator: Adobe Illustrator 25.1.0, SVG Export Plug-In . SVG Version: 6.00 Build 0)  -->
<svg version="1.1" id="Layer_1" xmlns="http://www.w3.org/2000/svg" xmlns:xlink="http://www.w3.org/1999/xlink" x="0px" y="0px"
	 viewBox="0 0 2102.9 2229.8" style="enable-background:new 0 0 2102.9 2229.8;" xml:space="preserve">
<style type="text/css">
	.st0{fill-rule:evenodd;clip-rule:evenodd;fill:url(#SVGID_1_);}
</style>
<linearGradient id="SVGID_1_" gradientUnits="userSpaceOnUse" x1="350.8404" y1="1515.344" x2="351.8276" y2="1514.344" gradientTransform="matrix(1580.8486 638.7043 642.8245 -1591.0466 -1528117.875 2186871.75)">
	<stop  offset="0" style="stop-color:#FF8F71"/>
	<stop  offset="1" style="stop-color:#FF3E55"/>
</linearGradient>
<path class="st0" d="M1755.4,1498.7l-295.3,731L730.6,1935l257.9-638.3c20.7-51.2,79-75.9,130.2-55.3L1755.4,1498.7L1755.4,1498.7z
	 M540.8,1006.8c201.4,81.4,298.8,310.7,217.4,512.1l-0.6,1.5c-81.4,201.4-310.7,298.8-512.1,217.4
	c-201.4-81.4-298.8-310.7-217.4-512.1l0.6-1.5C110.1,1022.7,339.4,925.4,540.8,1006.8L540.8,1006.8z M1251.5,294.7L993.7,933
	c-20.7,51.2-79,75.9-130.2,55.3L226.7,731L522.1,0L1251.5,294.7L1251.5,294.7z M2102.9,638.7l-295.3,731l-636.8-257.3
	c-51.2-20.7-75.9-79-55.3-130.2L1373.4,344L2102.9,638.7z"/>
</svg>
